<svg xmlns="http://www.w3.org/2000/svg" width="60" height="60" viewBox="0 0 60 60" fill="none">
  <rect width="60" height="60" rx="30" fill="white"/>
  <path d="M13.7273 31.8182H10V28.1818H13.7273C14.5455 20.6 20.6 14.5455 28.1818 13.7273V10H31.8182V13.7273C39.4 14.5455 45.4545 20.6 46.2727 28.1818H50V31.8182H46.2727C45.4545 39.4 39.4 45.4545 31.8182 46.2727V50H28.1818V46.2727C20.6 45.4545 14.5455 39.4 13.7273 31.8182ZM30 17.2727C22.9636 17.2727 17.2727 22.9636 17.2727 30C17.2727 37.0364 22.9636 42.7273 30 42.7273C37.0364 42.7273 42.7273 37.0364 42.7273 30C42.7273 22.9636 37.0364 17.2727 30 17.2727ZM28.4182 39.5455H31.6V36.3636H28.4182V39.5455ZM30 20.4545C26.4909 20.4545 23.6364 23.3091 23.6364 26.8182H26.8182C26.8182 25.0545 28.2364 23.6364 30 23.6364C31.7636 23.6364 33.1818 25.0545 33.1818 26.8182C33.1818 30 28.4182 29.6 28.4182 34.7818H31.6C31.6 31.2 36.3636 30.8 36.3636 26.8182C36.3636 23.3091 33.5091 20.4545 30 20.4545Z" fill="url(#paint0_linear_312_2139)"/>
  <defs>
    <linearGradient id="paint0_linear_312_2139" x1="10" y1="10" x2="42" y2="52" gradientUnits="userSpaceOnUse">
      <stop stop-color="#FD661F"/>
      <stop offset="0.520503" stop-color="#F36623"/>
      <stop offset="0.560503" stop-color="#1C6F71"/>
      <stop offset="1" stop-color="#0B7077"/>
    </linearGradient>
  </defs>
</svg>